<svg width="34" height="35" viewBox="0 0 34 35" fill="none" xmlns="http://www.w3.org/2000/svg">
<g clip-path="url(#clip0_159_103)">
<path d="M12.75 30.7222C14.054 30.7222 15.1111 29.6651 15.1111 28.3611C15.1111 27.0571 14.054 26 12.75 26C11.446 26 10.3889 27.0571 10.3889 28.3611C10.3889 29.6651 11.446 30.7222 12.75 30.7222Z" fill="#E27D60"/>
<path d="M25.0278 30.7222C26.3318 30.7222 27.3889 29.6651 27.3889 28.3611C27.3889 27.0571 26.3318 26 25.0278 26C23.7238 26 22.6667 27.0571 22.6667 28.3611C22.6667 29.6651 23.7238 30.7222 25.0278 30.7222Z" fill="#E27D60"/>
<path d="M31.2611 6.535C31.1731 6.42071 31.0601 6.32809 30.9308 6.26424C30.8015 6.20039 30.6592 6.16702 30.515 6.16667H8.69834L8.27334 4.81611C8.22665 4.6711 8.14558 4.53954 8.03704 4.43264C7.9285 4.32574 7.79571 4.24669 7.65 4.20222L3.77778 3.01222C3.65872 2.97564 3.53361 2.96286 3.40961 2.97462C3.2856 2.98638 3.16513 3.02245 3.05507 3.08077C2.83278 3.19856 2.66639 3.39982 2.5925 3.64028C2.51861 3.88074 2.54327 4.14071 2.66105 4.36299C2.77883 4.58528 2.9801 4.75167 3.22056 4.82556L6.61111 5.86445L10.9367 19.5306L9.39722 20.7961L9.27445 20.9189C8.89374 21.3597 8.67805 21.9191 8.66426 22.5015C8.65048 23.0838 8.83947 23.6528 9.19889 24.1111C9.45631 24.4242 9.78342 24.6726 10.154 24.8366C10.5247 25.0006 10.9285 25.0756 11.3333 25.0556H27.0961C27.3466 25.0556 27.5868 24.9561 27.7639 24.7789C27.9411 24.6018 28.0406 24.3616 28.0406 24.1111C28.0406 23.8606 27.9411 23.6204 27.7639 23.4433C27.5868 23.2662 27.3466 23.1667 27.0961 23.1667H11.1822C11.0735 23.163 10.9675 23.1313 10.8746 23.0746C10.7817 23.018 10.7049 22.9384 10.6517 22.8434C10.5986 22.7485 10.5708 22.6414 10.5711 22.5326C10.5713 22.4238 10.5997 22.3169 10.6533 22.2222L12.9294 20.3333H27.5022C27.718 20.3396 27.9294 20.2718 28.1012 20.1412C28.273 20.0106 28.395 19.8251 28.4467 19.6156L31.4689 7.33778C31.4976 7.19698 31.4938 7.05148 31.4578 6.91237C31.4218 6.77325 31.3545 6.64419 31.2611 6.535Z" fill="#E27D60"/>
</g>
<defs>
<clipPath id="clip0_159_103">
<rect width="34" height="34" fill="white" transform="translate(0 0.5)"/>
</clipPath>
</defs>
</svg>
