<svg width="66" height="65" viewBox="0 0 66 65" fill="none" xmlns="http://www.w3.org/2000/svg">
<g clip-path="url(#clip0_280_2215)">
<path d="M46.4406 -0.0590664C46.7109 -5.30407e-05 46.7109 -5.30332e-05 47.0362 0.230049C47.305 0.826075 47.2593 1.38748 47.2187 2.0312C47.3326 2.04216 47.4465 2.05313 47.5639 2.06442C51.2655 2.48123 54.5954 4.30288 56.9334 7.22375C58.5532 9.38377 59.3759 11.802 59.6601 14.4726C59.81 14.4667 59.9599 14.4608 60.1144 14.4548C60.3121 14.45 60.5098 14.4454 60.7075 14.4409C60.8062 14.4366 60.9049 14.4324 61.0065 14.428C61.7394 14.4154 61.7394 14.4154 62.1342 14.7012C62.4052 15.0954 62.4448 15.3935 62.4531 15.8691C62.2823 16.2433 62.1883 16.4458 61.8183 16.6308C61.567 16.6308 61.3156 16.6308 61.0566 16.6308C61.0566 20.0243 61.0566 23.4177 61.0566 26.914C61.9783 26.914 62.9 26.914 63.8496 26.914C64.4844 27.5488 64.4844 27.5488 64.5615 27.9761C64.56 28.2204 64.56 28.2204 64.5584 28.4696C64.5587 28.5598 64.559 28.6501 64.5593 28.7431C64.5595 29.04 64.5552 29.3367 64.5508 29.6336C64.5499 29.8402 64.5493 30.0467 64.549 30.2533C64.5476 30.6853 64.5443 31.1172 64.5392 31.5492C64.5327 32.1041 64.5296 32.6589 64.5277 33.2138C64.5258 33.7422 64.5226 34.2706 64.5191 34.799C64.5184 34.9003 64.5178 35.0016 64.5172 35.106C64.5151 35.3911 64.5121 35.6762 64.5088 35.9613C64.5064 36.2049 64.5064 36.2049 64.5039 36.4535C64.4844 36.8164 64.4844 36.8164 64.3574 36.9433C64.3443 37.2387 64.3394 37.5303 64.3399 37.8258C64.3395 37.9192 64.3392 38.0126 64.3388 38.1088C64.3377 38.4242 64.3376 38.7396 64.3374 39.055C64.3368 39.2802 64.3361 39.5053 64.3354 39.7305C64.334 40.2167 64.3329 40.7028 64.3321 41.189C64.3307 41.9577 64.3282 42.7263 64.3254 43.495C64.3175 45.6813 64.3106 47.8676 64.3064 50.0539C64.3041 51.2604 64.3004 52.4668 64.2953 53.6733C64.2926 54.3121 64.2906 54.9509 64.2903 55.5896C64.2901 56.1908 64.2881 56.7919 64.2847 57.393C64.2838 57.6136 64.2835 57.8342 64.284 58.0548C64.2845 58.3561 64.2826 58.6574 64.2802 58.9587C64.2809 59.0458 64.2816 59.1329 64.2823 59.2227C64.2744 59.7987 64.1494 60.193 63.8496 60.6835C63.1821 61.1543 62.2983 60.9814 61.5377 60.8517C61.0372 60.7606 60.5389 60.6604 60.041 60.5566C60.043 60.6648 60.045 60.773 60.047 60.8845C60.0535 61.2879 60.0583 61.6912 60.0619 62.0947C60.0638 62.2689 60.0664 62.4432 60.0697 62.6174C60.0744 62.8685 60.0763 63.1197 60.0782 63.3709C60.0802 63.5218 60.0822 63.6727 60.0842 63.8282C60.0368 64.2783 59.9304 64.5138 59.6601 64.873C59.2628 65.0716 58.8209 65.0884 58.3906 64.9999C58.0899 64.7901 57.9075 64.6244 57.8384 64.2548C57.8239 63.9551 57.8258 63.6594 57.8332 63.3595C57.8339 63.2503 57.8346 63.1411 57.8354 63.0286C57.8382 62.6806 57.8446 62.3328 57.8511 61.9848C57.8536 61.7486 57.8559 61.5124 57.858 61.2762C57.8636 60.6977 57.8723 60.1194 57.8828 59.541C57.763 59.5022 57.6432 59.4634 57.5198 59.4234C57.1658 59.3024 56.8806 59.1623 56.5577 58.9776C54.7374 58.0552 52.4518 58.0339 50.5111 58.5707C49.8015 58.8065 49.1479 59.184 48.4897 59.534C45.8053 60.942 42.8138 61.42 39.8554 60.5566C38.9022 60.2155 37.9898 59.7679 37.0982 59.2905C35.0241 58.1904 32.7289 57.9411 30.4525 58.5707C29.7429 58.8065 29.0893 59.184 28.4312 59.534C25.7467 60.942 22.7552 61.42 19.7969 60.5566C18.8436 60.2155 17.9312 59.7679 17.0396 59.2905C14.872 58.1409 12.5038 57.9445 10.1484 58.6523C9.65452 58.858 9.18714 59.1038 8.71771 59.36C8.37107 59.541 8.37107 59.541 8.11716 59.541C8.11982 59.6883 8.12248 59.8356 8.12522 59.9874C8.13442 60.5344 8.14025 61.0814 8.14506 61.6284C8.14761 61.8651 8.15108 62.1018 8.15547 62.3385C8.16164 62.6788 8.16451 63.0191 8.16675 63.3595C8.16938 63.4652 8.172 63.5708 8.1747 63.6797C8.17498 64.4152 8.17498 64.4152 7.87603 64.8129C7.45315 65.1095 7.09061 65.0857 6.59373 64.9999C6.18289 64.7787 6.10826 64.6861 5.95896 64.2382C5.94835 63.9576 5.94534 63.6766 5.94656 63.3957C5.94697 63.2308 5.94738 63.0659 5.9478 62.896C5.94886 62.7219 5.94994 62.5478 5.95103 62.3736C5.95166 62.198 5.95224 62.0223 5.95276 61.8467C5.95426 61.4167 5.95635 60.9866 5.95896 60.5566C5.82706 60.5841 5.69516 60.6116 5.55926 60.6399C3.14223 61.1291 3.14223 61.1291 2.27732 60.7867C1.8817 60.4282 1.78166 60.067 1.73756 59.5402C1.73746 59.3974 1.73736 59.2546 1.73727 59.1075C1.73619 58.8609 1.73619 58.8609 1.7351 58.6092C1.73559 58.4278 1.73611 58.2465 1.73665 58.0651C1.73631 57.8735 1.73586 57.6818 1.73531 57.4901C1.73415 56.9702 1.7346 56.4504 1.7354 55.9305C1.73605 55.3862 1.73545 54.842 1.73505 54.2977C1.73459 53.3837 1.7352 52.4698 1.73641 51.5558C1.73779 50.4994 1.73734 49.443 1.73594 48.3866C1.73479 47.4793 1.73463 46.572 1.73529 45.6648C1.73569 45.123 1.73574 44.5812 1.7349 44.0395C1.73417 43.5301 1.73468 43.0208 1.73615 42.5115C1.73648 42.3246 1.73638 42.1378 1.73582 41.9509C1.73513 41.6957 1.73615 41.4405 1.73727 41.1853C1.73736 41.0426 1.73746 40.8998 1.73756 40.7527C1.78024 40.2428 1.8877 39.8768 2.24558 39.5062C2.63012 39.3032 2.86308 39.294 3.29294 39.3554C3.71667 39.6285 3.89403 39.7622 4.05466 40.2441C4.06625 40.4921 4.07015 40.7405 4.06993 40.9887C4.07011 41.1441 4.07028 41.2996 4.07046 41.4597C4.07001 41.6322 4.06955 41.8047 4.06908 41.9771C4.06904 42.1586 4.06906 42.34 4.06913 42.5214C4.06917 43.0142 4.06842 43.507 4.06753 43.9999C4.06674 44.5148 4.06667 45.0297 4.06651 45.5446C4.06612 46.5198 4.06508 47.495 4.06381 48.4702C4.06239 49.5804 4.06169 50.6906 4.06105 51.8007C4.05972 54.0846 4.05749 56.3684 4.05466 58.6523C4.38135 58.5523 4.70787 58.4518 5.0343 58.351C5.12636 58.3229 5.21842 58.2948 5.31327 58.2658C5.94604 58.0698 6.52915 57.839 7.10947 57.5176C7.76564 57.1745 8.42343 56.8539 9.10898 56.5734C9.3223 56.4856 9.3223 56.4856 9.53993 56.3959C12.5953 55.4079 15.7181 55.964 18.5137 57.3773C18.6297 57.437 18.6297 57.437 18.748 57.4978C18.8245 57.537 18.901 57.5763 18.9798 57.6167C19.1865 57.724 19.3918 57.834 19.597 57.9441C20.7123 58.4366 21.7585 58.587 22.9707 58.5729C23.098 58.5744 23.2253 58.5759 23.3565 58.5774C24.6455 58.5724 25.7525 58.2703 26.8824 57.6605C27.0573 57.5702 27.2324 57.4803 27.4076 57.3907C27.4937 57.3465 27.5799 57.3023 27.6686 57.2568C30.2062 55.9746 33.0905 55.5032 35.8852 56.2273C36.9199 56.5755 37.9014 57.0331 38.8721 57.5305C38.961 57.576 39.05 57.6215 39.1416 57.6683C39.3098 57.7551 39.4773 57.8433 39.6439 57.9331C41.2922 58.7937 43.6077 58.8258 45.3814 58.3558C46.2896 58.0696 47.1115 57.6298 47.9417 57.1691C50.315 55.8663 53.3151 55.5476 55.9428 56.2268C56.9488 56.5657 57.9106 57.0037 58.8518 57.4933C58.9981 57.5694 59.1444 57.6455 59.2951 57.7239C59.4212 57.7925 59.5472 57.8611 59.677 57.9317C60.4049 58.2472 61.1825 58.4343 61.9453 58.6523C61.9453 51.6559 61.9453 44.6595 61.9453 37.4511C60.5628 37.4511 59.1802 37.4511 57.7558 37.4511C56.9941 37.0703 56.9941 37.0703 56.8672 36.8164C56.7933 35.9001 56.7933 35.9001 57.0973 35.4913C57.635 35.1072 58.1595 35.1493 58.7928 35.1536C58.8822 35.1537 58.9717 35.1538 59.0639 35.154C59.3975 35.1546 59.7312 35.1564 60.0648 35.158C61.1842 35.162 61.1842 35.162 62.3261 35.166C62.3261 33.155 62.3261 31.1441 62.3261 29.0722C42.9709 29.0722 23.6156 29.0722 3.6738 29.0722C3.6738 31.0831 3.6738 33.0941 3.6738 35.166C4.30222 35.1651 4.93065 35.1643 5.57811 35.1634C11.3371 35.1558 17.096 35.1501 22.855 35.1465C23.6094 35.146 24.3637 35.1455 25.1181 35.145C25.2682 35.1449 25.4184 35.1448 25.5732 35.1447C28.0068 35.1431 30.4405 35.1401 32.8742 35.1366C35.3702 35.133 37.8663 35.1309 40.3623 35.1301C41.9033 35.1296 43.4442 35.1279 44.9851 35.1249C46.0409 35.1229 47.0968 35.1222 48.1526 35.1227C48.7623 35.123 49.3719 35.1226 49.9816 35.1206C50.5395 35.1187 51.0972 35.1186 51.6551 35.1199C51.8572 35.1201 52.0593 35.1196 52.2615 35.1184C52.5357 35.1169 52.8098 35.1177 53.084 35.1191C53.2365 35.119 53.389 35.1188 53.5461 35.1187C54.1124 35.1854 54.4383 35.4031 54.8359 35.8007C54.9225 36.6957 54.9225 36.6957 54.6137 37.1258C54.086 37.4923 53.5884 37.4671 52.9566 37.4674C52.8694 37.4677 52.7822 37.4679 52.6923 37.4681C52.3987 37.4687 52.1051 37.4684 51.8115 37.4681C51.5995 37.4683 51.3874 37.4686 51.1753 37.469C50.5915 37.4697 50.0076 37.4697 49.4238 37.4696C48.7946 37.4696 48.1653 37.4702 47.5361 37.4709C46.3029 37.4719 45.0698 37.4723 43.8366 37.4723C42.8346 37.4724 41.8326 37.4726 40.8306 37.4731C37.9916 37.4742 35.1526 37.4748 32.3136 37.4747C32.1604 37.4747 32.0073 37.4747 31.8496 37.4746C31.6962 37.4746 31.5429 37.4746 31.385 37.4746C28.8992 37.4746 26.4134 37.4758 23.9277 37.4776C21.3771 37.4794 18.8265 37.4803 16.2759 37.4802C14.8433 37.4801 13.4106 37.4805 11.9779 37.4818C10.7583 37.483 9.53871 37.4833 8.31911 37.4824C7.69655 37.482 7.074 37.482 6.45144 37.4831C5.88191 37.4841 5.31239 37.4839 4.74285 37.4828C4.53645 37.4826 4.33005 37.4828 4.12365 37.4835C3.84373 37.4844 3.56386 37.4838 3.28394 37.4827C3.05043 37.4828 3.05043 37.4828 2.81221 37.4828C2.40434 37.4511 2.12918 37.3895 1.76951 37.1972C1.45732 36.7289 1.48137 36.4916 1.4767 35.9325C1.47512 35.7983 1.47512 35.7983 1.4735 35.6615C1.47044 35.3657 1.46933 35.07 1.46849 34.7742C1.46735 34.5685 1.46619 34.3628 1.46501 34.157C1.46292 33.7257 1.46195 33.2943 1.46158 32.863C1.46089 32.3107 1.45611 31.7585 1.45031 31.2062C1.44653 30.7812 1.44562 30.3563 1.44549 29.9313C1.44495 29.7277 1.44338 29.5241 1.44073 29.3206C1.43731 29.0355 1.43792 28.7506 1.43951 28.4655C1.43887 28.3034 1.43822 28.1414 1.43756 27.9744C1.53643 27.4352 1.72376 27.2477 2.15037 26.914C2.56039 26.8419 2.56039 26.8419 3.01771 26.852C3.18177 26.8541 3.34583 26.8561 3.51486 26.8582C3.68687 26.8635 3.85886 26.8689 4.03086 26.8743C4.20533 26.8775 4.37981 26.8804 4.55429 26.883C4.98034 26.8905 5.4061 26.9009 5.83201 26.914C5.78766 26.8297 5.74331 26.7454 5.69762 26.6586C5.63985 26.5465 5.58208 26.4344 5.52256 26.3189C5.46512 26.2085 5.40768 26.098 5.34849 25.9842C5.20233 25.6559 5.12574 25.3635 5.07029 25.0097C4.91318 25.0019 4.75608 24.994 4.59421 24.9859C4.17477 24.9324 4.06986 24.8961 3.73728 24.605C3.5102 24.1793 3.46756 23.962 3.54685 23.4863C3.81992 23.0626 3.95363 22.8852 4.43552 22.7246C4.67606 22.7159 4.91689 22.7138 5.15757 22.7166C5.28374 22.7178 5.40992 22.7189 5.53992 22.7201C5.6845 22.7223 5.6845 22.7223 5.83201 22.7246C5.74953 22.5662 5.74953 22.5662 5.66538 22.4047C5.59468 22.2667 5.52399 22.1288 5.45115 21.9866C5.38045 21.8497 5.30975 21.7127 5.23691 21.5716C5.07029 21.2011 5.07029 21.2011 5.07029 20.8203C4.9577 20.8307 4.84511 20.8412 4.7291 20.852C4.20263 20.8123 4.0249 20.7037 3.6738 20.3124C3.52578 19.8036 3.49196 19.544 3.71348 19.0588C3.92771 18.789 3.92771 18.789 4.18162 18.6621C4.46147 18.6329 4.74198 18.6099 5.02268 18.5906C5.17357 18.58 5.32445 18.5694 5.47991 18.5584C5.5961 18.5507 5.71229 18.543 5.83201 18.5351C5.78766 18.4615 5.74331 18.3878 5.69762 18.3119C5.37113 17.7515 5.12108 17.291 5.07029 16.6308C4.93413 16.6413 4.79797 16.6518 4.65769 16.6625C4.18162 16.6308 4.18162 16.6308 3.8801 16.4324C3.60918 16.0261 3.56419 15.7199 3.54685 15.2343C3.68676 14.8029 3.79073 14.7332 4.18162 14.4726C4.57983 14.4478 4.57983 14.4478 5.03062 14.4567C5.18036 14.459 5.3301 14.4613 5.48437 14.4637C5.59909 14.4666 5.71381 14.4696 5.83201 14.4726C5.76548 14.3462 5.76548 14.3462 5.69762 14.2172C5.63985 14.1051 5.58208 13.993 5.52256 13.8775C5.46512 13.767 5.40768 13.6566 5.34849 13.5428C5.20233 13.2145 5.12574 12.9221 5.07029 12.5683C4.93675 12.5605 4.80321 12.5526 4.66563 12.5445C4.08928 12.4217 3.89301 12.2786 3.54685 11.8066C3.45315 11.3069 3.50097 11.1161 3.77695 10.6878C4.2397 10.2251 4.65513 10.2668 5.28193 10.2653C5.36838 10.2649 5.45484 10.2646 5.54391 10.2642C5.83424 10.2631 6.12456 10.2629 6.41489 10.2627C6.62279 10.2621 6.83069 10.2615 7.0386 10.2608C7.60385 10.2591 8.16911 10.2583 8.73437 10.2577C9.08741 10.2574 9.44045 10.2568 9.7935 10.2563C10.8978 10.2545 12.0021 10.2533 13.1063 10.2528C14.3817 10.2523 15.657 10.25 16.9323 10.2463C17.9178 10.2436 18.9032 10.2423 19.8886 10.2422C20.4774 10.242 21.0661 10.2413 21.6549 10.239C22.2086 10.2369 22.7623 10.2366 23.316 10.2378C23.5193 10.2378 23.7225 10.2373 23.9257 10.236C24.2032 10.2344 24.4806 10.2352 24.758 10.2365C24.9133 10.2363 25.0686 10.2361 25.2285 10.2359C25.6752 10.2876 25.9124 10.3988 26.2715 10.664C26.5163 10.9868 26.5265 11.1443 26.5095 11.5527C26.3782 12.0029 26.2671 12.164 25.8906 12.4414C25.6707 12.4806 25.6707 12.4806 25.4463 12.5207C24.9905 12.646 24.9905 12.646 24.8408 12.9794C24.7541 13.2037 24.6732 13.4302 24.5988 13.6588C24.4941 13.9648 24.4941 13.9648 24.2402 14.3456C24.3428 14.3489 24.4454 14.3522 24.5511 14.3556C25.6531 14.4141 25.6531 14.4141 26.1683 14.6868C26.4556 15.0534 26.5159 15.2776 26.5254 15.7421C26.3922 16.2304 26.3216 16.3435 25.8906 16.6308C25.5945 16.6408 25.2979 16.642 25.0019 16.6308C24.9673 16.7572 24.9673 16.7572 24.932 16.8862C24.9001 16.9983 24.8682 17.1104 24.8353 17.2259C24.8044 17.3364 24.7734 17.4468 24.7416 17.5606C24.6142 17.9196 24.4458 18.2155 24.2402 18.5351C24.3535 18.5384 24.4667 18.5416 24.5834 18.545C24.732 18.5522 24.8806 18.5594 25.0337 18.5668C25.181 18.5727 25.3282 18.5786 25.48 18.5847C25.956 18.6744 26.1075 18.7901 26.3984 19.1699C26.544 19.6261 26.5655 19.8386 26.3746 20.2807C26.1331 20.5805 26 20.7027 25.6367 20.8203C25.4251 20.8237 25.2135 20.8241 25.0019 20.8203C24.9673 20.9467 24.9673 20.9467 24.932 21.0757C24.7613 21.6752 24.602 22.2076 24.2402 22.7246C24.3337 22.7201 24.4271 22.7157 24.5234 22.7112C25.7959 22.6759 25.7959 22.6759 26.2715 23.1054C26.5163 23.4282 26.5265 23.5857 26.5095 23.9941C26.3782 24.4443 26.2671 24.6054 25.8906 24.8828C25.744 24.9089 25.5973 24.9351 25.4463 24.9621C24.9905 25.0874 24.9905 25.0874 24.8408 25.4208C24.7541 25.6451 24.6732 25.8716 24.5988 26.1002C24.4941 26.4062 24.4941 26.4062 24.2402 26.7871C26.5444 26.829 28.8486 26.8708 31.2226 26.914C31.2226 23.5206 31.2226 20.1271 31.2226 16.6308C30.9713 16.6308 30.7199 16.6308 30.4609 16.6308C30.0455 16.3501 29.9642 16.1674 29.842 15.6787C29.8266 15.2458 29.827 15.0682 30.0801 14.7265C30.4669 14.4686 30.5372 14.4413 30.9702 14.4478C31.1144 14.449 31.1144 14.449 31.2616 14.4503C31.4112 14.4535 31.4112 14.4535 31.5638 14.4567C31.7156 14.4585 31.7156 14.4585 31.8705 14.4602C32.1201 14.4632 32.3696 14.4677 32.6191 14.4726C32.6316 14.3558 32.644 14.2389 32.6568 14.1185C33.1015 10.3537 34.8396 7.13569 37.8111 4.75846C39.9035 3.18931 42.4338 2.16038 45.0605 2.0312C45.0546 1.93775 45.0487 1.84431 45.0427 1.74803C45.0217 1.18173 45.0076 0.752159 45.243 0.230049C45.6569 -0.0627004 45.9408 -0.0928308 46.4406 -0.0590664ZM38.2051 7.49018C38.118 7.56792 38.0309 7.64565 37.9412 7.72574C36.2955 9.24514 35.2365 11.5193 34.9043 13.7109C34.9043 13.9623 34.9043 14.2136 34.9043 14.4726C42.3196 14.4726 49.7349 14.4726 57.375 14.4726C57.2903 13.5411 57.2195 12.8117 56.9227 11.9573C56.8891 11.8598 56.8555 11.7622 56.8209 11.6617C56.2248 10.0033 55.3039 8.7348 54.0742 7.49018C54.0002 7.40705 53.9263 7.32391 53.85 7.23826C52.0864 5.29646 49.1593 4.31577 46.6117 4.16907C43.4002 4.07765 40.5043 5.25836 38.2051 7.49018ZM7.35544 12.5683C7.77158 13.3566 7.77158 13.3566 8.3552 13.8775C8.43604 13.9372 8.51689 13.997 8.60018 14.0585C9.2763 14.4471 9.92404 14.51 10.6899 14.5075C10.8436 14.5084 10.8436 14.5084 11.0005 14.5094C11.3377 14.5112 11.6748 14.5111 12.012 14.5108C12.2476 14.5113 12.4832 14.5118 12.7188 14.5124C13.212 14.5134 13.7052 14.5133 14.1985 14.5127C14.8288 14.5119 15.4591 14.5141 16.0895 14.517C16.5759 14.5189 17.0623 14.519 17.5487 14.5186C17.781 14.5187 18.0133 14.5194 18.2456 14.5206C18.5713 14.5222 18.8969 14.5213 19.2225 14.5199C19.3648 14.5213 19.3648 14.5213 19.51 14.5228C20.4839 14.5132 21.3135 14.1953 22.082 13.5839C22.4635 13.1243 22.4635 13.1243 22.5898 12.5683C17.5625 12.5683 12.5351 12.5683 7.35544 12.5683ZM7.35544 16.6308C7.84483 17.6096 8.36635 18.1587 9.38669 18.5351C9.96477 18.6526 10.5263 18.6809 11.1141 18.6805C11.2077 18.6809 11.3013 18.6814 11.3978 18.6818C11.7055 18.683 12.0133 18.6832 12.321 18.6834C12.5363 18.6838 12.7517 18.6842 12.967 18.6847C13.4179 18.6854 13.8687 18.6857 14.3196 18.6856C14.895 18.6856 15.4704 18.6873 16.0458 18.6895C16.4905 18.6909 16.9352 18.6912 17.3799 18.6911C17.5919 18.6912 17.8039 18.6918 18.0159 18.6928C20.0451 18.7512 20.0451 18.7512 21.8281 17.9003C22.216 17.5015 22.5392 17.1634 22.7168 16.6308C17.6475 16.6308 12.5783 16.6308 7.35544 16.6308ZM33.3808 16.6308C33.3808 20.0243 33.3808 23.4177 33.3808 26.914C41.8016 26.914 50.2224 26.914 58.8984 26.914C58.8984 23.5206 58.8984 20.1271 58.8984 16.6308C50.4776 16.6308 42.0568 16.6308 33.3808 16.6308ZM7.35544 20.8203C7.70585 21.5399 7.70585 21.5399 8.22031 22.0581C8.3433 22.167 8.3433 22.167 8.46876 22.2782C9.13088 22.7282 9.8153 22.7628 10.5939 22.7635C10.6997 22.7645 10.8055 22.7656 10.9145 22.7667C11.2628 22.7697 11.6111 22.7708 11.9595 22.7717C12.203 22.7728 12.4465 22.774 12.69 22.7751C13.2001 22.7772 13.7102 22.7782 14.2203 22.7786C14.8714 22.7793 15.5224 22.784 16.1735 22.7898C16.6765 22.7936 17.1795 22.7945 17.6825 22.7947C17.9224 22.7952 18.1623 22.7968 18.4022 22.7994C20.3978 22.8381 20.3978 22.8381 22.0786 21.852C22.5035 21.4096 22.5035 21.4096 22.5898 20.8203C17.5625 20.8203 12.5351 20.8203 7.35544 20.8203ZM7.35544 25.0097C7.77158 25.7981 7.77158 25.7981 8.3552 26.3189C8.43604 26.3786 8.51689 26.4384 8.60018 26.4999C9.27893 26.89 9.93078 26.9518 10.6995 26.9509C10.8031 26.9517 10.9066 26.9526 11.0132 26.9535C11.354 26.9559 11.6946 26.9564 12.0354 26.9567C12.2735 26.9575 12.5116 26.9583 12.7497 26.9592C13.2484 26.9607 13.747 26.9612 14.2457 26.9611C14.8826 26.961 15.5194 26.9645 16.1563 26.9689C16.6481 26.9717 17.1398 26.9722 17.6316 26.9721C17.8663 26.9724 18.101 26.9735 18.3356 26.9755C20.2798 27.0097 20.2798 27.0097 21.9392 26.0888C22.4071 25.6103 22.4071 25.6103 22.5898 25.0097C17.5625 25.0097 12.5351 25.0097 7.35544 25.0097Z" fill="#4A4949"/>
<path d="M36.8757 18.5977C36.9587 18.5969 37.0417 18.5961 37.1273 18.5953C37.4053 18.5933 37.6831 18.5949 37.9611 18.5965C38.1605 18.5958 38.3599 18.5949 38.5592 18.5938C39.1006 18.5914 39.642 18.5923 40.1834 18.594C40.7497 18.5952 41.3161 18.594 41.8824 18.5932C42.8335 18.5923 43.7846 18.5935 44.7358 18.596C45.8357 18.5987 46.9355 18.5978 48.0354 18.595C48.9795 18.5927 49.9235 18.5924 50.8675 18.5937C51.4315 18.5945 51.9955 18.5946 52.5594 18.593C53.0896 18.5915 53.6198 18.5925 54.15 18.5954C54.3447 18.5961 54.5393 18.5959 54.734 18.5948C54.9996 18.5934 55.265 18.5951 55.5306 18.5977C55.6793 18.5979 55.8279 18.5981 55.9811 18.5983C56.4378 18.6754 56.5868 18.8088 56.8672 19.17C56.9596 19.5178 56.9408 19.8342 56.8672 20.1856C56.6298 20.4942 56.4506 20.6478 56.1055 20.8204C55.8464 20.8331 55.5868 20.8375 55.3274 20.8382C55.1613 20.8389 54.9952 20.8396 54.8241 20.8404C54.639 20.8405 54.4539 20.8407 54.2687 20.8408C54.0746 20.8414 53.8805 20.842 53.6864 20.8427C53.1581 20.8444 52.6298 20.8452 52.1015 20.8458C51.7716 20.8462 51.4417 20.8467 51.1117 20.8472C50.0798 20.849 49.048 20.8502 48.0161 20.8507C46.8242 20.8513 45.6324 20.8535 44.4406 20.8572C43.5198 20.8599 42.5991 20.8612 41.6783 20.8614C41.1282 20.8615 40.578 20.8622 40.0279 20.8645C39.5103 20.8666 38.9928 20.8669 38.4752 20.8658C38.2853 20.8657 38.0954 20.8662 37.9055 20.8675C37.6461 20.8691 37.3867 20.8681 37.1273 20.867C36.9822 20.8672 36.837 20.8674 36.6875 20.8676C36.2539 20.8146 36.0165 20.6953 35.666 20.4395C35.4212 20.1168 35.411 19.9592 35.428 19.5508C35.6607 18.753 36.0844 18.5987 36.8757 18.5977Z" fill="#4A4949"/>
<path d="M53.6934 50.5273C54.0309 50.7411 54.0678 50.8856 54.1774 51.2732C54.2034 51.7061 54.1566 51.9279 53.9473 52.3047C53.4796 52.6165 53.0941 52.6462 52.5508 52.5586C52.1617 52.2992 52.0656 52.1218 51.924 51.6779C51.9144 51.2065 52.0032 51.0189 52.2969 50.6543C52.7478 50.3001 53.1581 50.4008 53.6934 50.5273Z" fill="#4A4949"/>
<path d="M58.1208 46.6077C58.3593 47.0051 58.3431 47.4188 58.2637 47.8613C58.0043 48.2504 57.8268 48.3465 57.3829 48.4882C56.9143 48.4977 56.7259 48.4003 56.3594 48.1152C56.0621 47.6693 56.0425 47.4976 56.1054 46.9727C56.321 46.6263 56.484 46.4025 56.8513 46.2189C57.3284 46.2048 57.7162 46.3649 58.1208 46.6077Z" fill="#4A4949"/>
</g>
<defs>
<clipPath id="clip0_280_2215">
<rect width="65" height="65" fill="white" transform="translate(0.5)"/>
</clipPath>
</defs>
</svg>
