<svg width="66" height="65" viewBox="0 0 66 65" fill="none" xmlns="http://www.w3.org/2000/svg">
<g clip-path="url(#clip0_283_51)">
<path d="M21.1132 22.5596C22.2174 23.5249 22.9188 25.1721 23.6051 26.4569C23.7507 26.7282 23.8992 26.9977 24.0478 27.2672C24.1415 27.4417 24.2351 27.6163 24.3285 27.7909C24.3728 27.8703 24.417 27.9496 24.4627 28.0314C24.7375 28.5565 24.7868 28.8837 24.6211 29.4532C24.3978 29.8129 24.227 29.8377 23.8117 29.9531C23.2356 29.963 23.1252 29.8468 22.7168 29.4532C22.539 29.1725 22.3855 28.9057 22.2372 28.6107C22.1948 28.5296 22.1525 28.4485 22.1088 28.3649C21.9742 28.1068 21.8415 27.8478 21.7091 27.5886C21.5342 27.2491 21.3585 26.9101 21.1819 26.5715C21.1397 26.4903 21.0976 26.409 21.0541 26.3254C20.7561 25.7589 20.4277 25.228 20.0544 24.7084C19.9238 24.502 19.9238 24.502 19.9238 24.2481C19.0126 23.7738 18.2201 23.5305 17.1968 23.724C16.0575 24.2344 15.5871 25.2514 15.0282 26.3111C14.9397 26.4755 14.8511 26.6398 14.7623 26.804C14.5358 27.2239 14.3113 27.6448 14.0873 28.0661C13.8843 28.447 13.6794 28.8269 13.4745 29.2068C13.2487 29.6254 13.023 30.0441 12.7981 30.4632C12.3836 31.2355 11.9645 32.0048 11.537 32.7699C11.0335 33.671 10.5377 34.5762 10.0453 35.4835C9.97677 35.6094 9.90827 35.7352 9.83769 35.8649C9.6434 36.2236 9.45116 36.5833 9.25974 36.9435C9.19774 37.0583 9.13574 37.1732 9.07185 37.2915C8.64785 38.0997 8.48957 38.6941 8.62498 39.6095C8.70657 39.8618 8.70657 39.8618 8.81541 40.0855C9.04427 40.5814 9.05776 40.8428 9.00584 41.3868C8.8562 41.7802 8.65672 42.1394 8.45042 42.5056C8.39387 42.6094 8.33733 42.7133 8.27908 42.8203C8.10018 43.1477 7.91859 43.4734 7.7363 43.7989C7.55925 44.1169 7.38229 44.4349 7.20537 44.7529C7.09627 44.9483 6.98658 45.1434 6.87621 45.3381C6.38199 46.2149 6.01734 46.9738 6.28081 47.9988C6.43465 48.4385 6.60076 48.7597 6.87937 49.1389C7.17546 49.6359 7.10293 49.8413 6.97459 50.4005C6.8206 50.7522 6.63037 51.078 6.43503 51.4082C6.31912 51.6102 6.20342 51.8124 6.0879 52.0147C6.02596 52.1225 5.96401 52.2303 5.9002 52.3414C5.55029 52.9586 5.21601 53.5843 4.87986 54.2091C4.31662 55.2533 3.74725 56.2936 3.16376 57.3266C2.68488 58.1799 2.56266 58.8239 2.65818 59.795C2.86376 60.4699 3.19456 60.9432 3.80076 61.3185C4.43739 61.5821 4.99134 61.6089 5.66815 61.6063C5.7779 61.6069 5.88765 61.6075 6.00072 61.6081C6.36764 61.6097 6.73453 61.6095 7.10145 61.6092C7.36486 61.61 7.62828 61.6109 7.8917 61.6118C8.60674 61.6141 9.32177 61.6147 10.0368 61.6148C10.4837 61.615 10.9306 61.6156 11.3775 61.6162C12.937 61.6186 14.4966 61.6196 16.0561 61.6194C17.5091 61.6193 18.962 61.6219 20.4149 61.6259C21.663 61.6293 22.9111 61.6306 24.1592 61.6305C24.9044 61.6304 25.6495 61.6311 26.3946 61.6338C27.0956 61.6363 27.7966 61.6363 28.4975 61.6344C28.7544 61.6342 29.0113 61.6348 29.2681 61.6363C29.6196 61.6383 29.971 61.6371 30.3225 61.6351C30.4738 61.6371 30.4738 61.6371 30.6282 61.6391C31.4768 61.6287 32.2755 61.4013 32.8929 60.7963C33.3478 60.0518 33.5837 59.4999 33.4389 58.6098C33.2153 57.7588 32.7447 56.9997 32.3255 56.2324C32.2342 56.0632 32.1429 55.894 32.0517 55.7248C31.4162 54.5493 30.7658 53.3824 30.1007 52.2234C28.8732 50.0817 28.8732 50.0817 29.0644 49.2579C29.2065 48.9754 29.3646 48.7234 29.5479 48.4659C29.9114 47.9285 29.9372 47.3393 29.8261 46.7188C29.427 45.7203 28.8685 44.7919 28.3473 43.8535C28.2266 43.634 28.2266 43.634 28.1034 43.4101C27.9421 43.1176 27.7789 42.826 27.6138 42.5356C27.5387 42.3999 27.4636 42.2641 27.3863 42.1242C27.3183 42.0035 27.2503 41.8828 27.1802 41.7585C27.0033 41.3114 26.9953 40.9752 27.0332 40.4981C27.1558 40.2421 27.2829 39.9882 27.414 39.7364C27.7997 38.3038 26.8762 36.9746 26.208 35.7612C26.1211 35.6012 26.0343 35.4411 25.9476 35.2809C25.5083 34.4692 25.5083 34.4692 25.0416 33.6731C24.7665 33.2037 24.8067 32.9111 24.875 32.3731C25.1368 32.0478 25.1368 32.0478 25.5097 31.8653C25.9541 31.8495 25.9541 31.8495 26.3984 31.9923C26.866 32.491 27.2054 33.0156 27.5217 33.6214C27.5646 33.7021 27.6076 33.7828 27.6519 33.866C27.742 34.0358 27.8317 34.2057 27.921 34.3759C28.0559 34.633 28.1922 34.8893 28.3287 35.1455C29.3222 37.0176 29.9525 38.3546 29.4453 40.4981C29.4143 40.5709 29.3833 40.6436 29.3514 40.7185C29.3004 41.1616 29.5213 41.4742 29.7324 41.8485C29.7985 41.9702 29.7985 41.9702 29.8659 42.0943C30.0073 42.3539 30.1507 42.6122 30.2943 42.8706C30.4806 43.2093 30.6661 43.5484 30.8512 43.8877C30.8957 43.9691 30.9402 44.0505 30.986 44.1344C31.8207 45.6724 32.3285 47.0585 31.8098 48.8215C31.7113 49.1164 31.6279 49.3511 31.4455 49.6034C31.3104 49.9099 31.3104 49.9099 31.4927 50.2769C31.5726 50.4285 31.6549 50.5789 31.7389 50.7283C31.7827 50.8099 31.8265 50.8915 31.8717 50.9756C32.0158 51.2425 32.1627 51.5078 32.3097 51.7732C32.4094 51.9566 32.5089 52.1402 32.6083 52.3239C33.2705 53.5433 33.9478 54.7551 34.6472 55.9536C35.4641 57.3669 35.9016 58.7575 35.5028 60.3916C35.1578 61.502 34.5055 62.4595 33.5063 63.0789C32.5127 63.5898 31.736 63.7496 30.6216 63.7484C30.51 63.7488 30.3984 63.7491 30.2834 63.7495C29.9093 63.7506 29.5353 63.7508 29.1613 63.751C28.8931 63.7516 28.6249 63.7522 28.3567 63.7529C27.628 63.7546 26.8993 63.7554 26.1706 63.756C25.7152 63.7564 25.2598 63.7569 24.8043 63.7574C23.379 63.7592 21.9536 63.7604 20.5282 63.7609C18.8837 63.7615 17.2392 63.7637 15.5947 63.7674C14.323 63.7701 13.0513 63.7714 11.7796 63.7716C11.0203 63.7717 10.2611 63.7724 9.50181 63.7747C8.7873 63.7768 8.0728 63.7771 7.35828 63.776C7.09657 63.7759 6.83485 63.7764 6.57314 63.7777C6.21474 63.7793 5.85641 63.7785 5.49801 63.7772C5.34416 63.7788 5.34416 63.7788 5.1872 63.7803C3.85591 63.7689 2.77452 63.3269 1.76951 62.461C0.84636 61.5062 0.45856 60.4218 0.428565 59.1126C0.425149 59.0275 0.421733 58.9423 0.418213 58.8546C0.428609 57.4445 1.30203 56.1322 1.95994 54.9311C2.03639 54.7901 2.11285 54.6491 2.19162 54.5038C2.79775 53.3904 3.41958 52.286 4.05466 51.1888C4.15212 51.019 4.15212 51.019 4.25154 50.8458C4.30871 50.7472 4.36587 50.6485 4.42477 50.5468C4.55819 50.282 4.64213 50.058 4.68943 49.7657C4.60013 49.4773 4.60013 49.4773 4.45139 49.1944C4.14947 48.5779 4.03384 48.0904 4.02293 47.4012C4.01965 47.2791 4.01638 47.1571 4.01301 47.0313C4.14649 45.6234 4.8631 44.4592 5.53049 43.2435C5.68102 42.9677 5.8312 42.6918 5.98073 42.4154C6.07321 42.2447 6.1663 42.0743 6.26006 41.9042C6.56613 41.3546 6.56613 41.3546 6.72068 40.752C6.63637 40.498 6.55168 40.2441 6.46677 39.9903C6.43329 39.6399 6.41411 39.309 6.41123 38.9588C6.40706 38.8721 6.40288 38.7854 6.39859 38.696C6.38418 37.271 7.2627 35.9577 7.92673 34.7456C8.00457 34.6022 8.08241 34.4588 8.1626 34.311C8.72649 33.276 9.30562 32.2501 9.8898 31.2264C10.4144 30.3026 10.9172 29.3683 11.4146 28.4296C12.0854 27.1641 12.7572 25.8989 13.4492 24.6449C13.5115 24.5288 13.5739 24.4128 13.6381 24.2933C14.2138 23.2615 14.9173 22.419 16.0041 21.9074C16.1275 21.8474 16.2509 21.7873 16.378 21.7254C18.0653 21.0753 19.7031 21.5478 21.1132 22.5596Z" fill="#4A4949"/>
<path d="M18.9162 24.5576C19.7946 25.3239 20.2931 26.4453 20.8276 27.4635C21.0356 27.8597 21.2459 28.2548 21.4562 28.6498C21.4986 28.7294 21.5409 28.8089 21.5845 28.8909C21.9681 29.6091 22.3678 30.3176 22.7724 31.0242C23.516 32.3248 24.2222 33.6438 24.9204 34.9692C25.3715 35.8233 25.8374 36.6633 26.3403 37.4883C26.7391 38.2288 26.8558 38.8024 26.6524 39.6095C26.4289 40.0882 26.1864 40.3209 25.7637 40.6251C25.8057 40.6989 25.8477 40.7727 25.891 40.8488C26.6938 42.2607 27.4913 43.6753 28.271 45.1002C28.3687 45.2779 28.3687 45.2779 28.4683 45.4593C28.5282 45.5692 28.5881 45.6792 28.6499 45.7925C28.7026 45.8889 28.7552 45.9853 28.8095 46.0847C29.1062 46.6715 29.1292 47.2168 29.0645 47.8614C28.8979 48.2264 28.8979 48.2264 28.6836 48.4962C28.6286 48.5695 28.5736 48.6428 28.517 48.7183C28.2135 48.9432 27.9097 48.9503 27.541 49.004C28.4464 50.7095 29.3533 52.4128 30.3102 54.09C30.9797 55.2637 31.6237 56.4488 32.2416 57.6505C32.3553 57.8714 32.471 58.0914 32.5869 58.3112C32.7961 58.7596 32.8064 59.0506 32.7461 59.5411C32.512 60.1517 32.2019 60.538 31.6035 60.8106C31.2266 60.8467 30.8767 60.8621 30.5001 60.859C30.3335 60.8599 30.3335 60.8599 30.1636 60.8608C29.7916 60.8623 29.4196 60.8611 29.0476 60.8599C28.7809 60.8604 28.5142 60.8611 28.2474 60.8619C27.523 60.8637 26.7985 60.863 26.0741 60.8618C25.3163 60.8608 24.5586 60.8617 23.8008 60.8623C22.5282 60.863 21.2557 60.8621 19.9831 60.8603C18.5113 60.8582 17.0396 60.8589 15.5678 60.861C14.3047 60.8627 13.0416 60.8629 11.7786 60.8619C11.0239 60.8614 10.2693 60.8613 9.51468 60.8625C8.80527 60.8636 8.09588 60.8629 7.38647 60.8607C7.12592 60.8602 6.86538 60.8603 6.60483 60.8611C6.24954 60.8622 5.89433 60.8609 5.53904 60.859C5.43561 60.8598 5.33218 60.8607 5.22562 60.8616C4.6431 60.8555 4.26503 60.79 3.80081 60.4298C3.62327 60.2061 3.62327 60.2061 3.49929 59.9616C3.45642 59.8826 3.41354 59.8035 3.36937 59.7221C3.16961 58.9166 3.46705 58.2137 3.84643 57.5133C3.88968 57.4325 3.93294 57.3517 3.9775 57.2684C4.11804 57.0068 4.26087 56.7466 4.40384 56.4863C4.5024 56.3041 4.60085 56.1218 4.69918 55.9394C5.33758 54.7595 5.99243 53.5889 6.65821 52.4242C7.3004 51.2991 7.90326 50.1547 8.49807 49.004C8.37975 48.9907 8.26144 48.9775 8.13953 48.9638C7.54902 48.8367 7.44508 48.5962 7.10159 48.1153C6.87683 47.6658 6.90664 47.204 6.97464 46.7188C7.15654 46.2299 7.40226 45.7847 7.65701 45.3303C7.72566 45.2034 7.79431 45.0766 7.86504 44.9459C8.07357 44.5621 8.28535 44.1804 8.49807 43.7989C8.62012 43.5781 8.74212 43.3572 8.86406 43.1364C9.02465 42.8461 9.18566 42.5562 9.34875 42.2673C9.67673 41.6861 9.98096 41.0971 10.2754 40.4981C10.155 40.417 10.0345 40.3358 9.91043 40.2522C9.49702 39.9017 9.34309 39.5793 9.26602 39.0448C9.24533 37.9684 10.0853 36.8171 10.5849 35.904C10.6633 35.7595 10.7417 35.6149 10.8225 35.466C11.3874 34.4268 11.9688 33.3973 12.5553 32.3702C13.0856 31.4365 13.5929 30.4918 14.0953 29.543C14.7224 28.3587 15.3501 27.1749 16.0121 26.0096C16.0656 25.9135 16.119 25.8174 16.1741 25.7184C16.7806 24.6667 17.6809 23.9778 18.9162 24.5576ZM17.8926 26.9141C17.8306 27.0296 17.8306 27.0296 17.7673 27.1475C17.0056 28.5642 16.2383 29.9765 15.4408 31.3734C14.6969 32.6777 13.9883 33.9994 13.2882 35.3276C12.827 36.2007 12.3537 37.064 11.8564 37.917C11.6382 38.2354 11.6382 38.2354 11.5449 38.5938C11.7047 38.6279 11.8644 38.6619 12.029 38.697C12.3313 38.7746 12.5486 38.8403 12.8145 39.0064C13.0083 39.3456 12.9712 39.6036 12.9414 39.9903C12.7812 40.3801 12.7812 40.3801 12.5551 40.7952C12.5145 40.8708 12.4738 40.9464 12.4319 41.0244C12.2991 41.2703 12.1641 41.515 12.029 41.7597C11.9368 41.9295 11.8447 42.0993 11.7527 42.2691C11.0993 43.4722 10.4294 44.6664 9.74371 45.8514C9.67959 45.9629 9.61547 46.0744 9.5494 46.1892C9.49319 46.2859 9.43698 46.3827 9.37906 46.4824C9.24073 46.7125 9.24073 46.7125 9.25979 46.9727C9.37598 46.9866 9.49218 47.0006 9.61189 47.0149C9.76278 47.035 9.91366 47.0551 10.0691 47.0759C10.2945 47.1046 10.2945 47.1046 10.5244 47.1339C10.9102 47.2266 10.9102 47.2266 11.1641 47.6075C11.3082 48.5076 10.8787 49.1284 10.442 49.8927C10.3672 50.0272 10.2924 50.1617 10.2153 50.3003C9.9835 50.7158 9.74907 51.1296 9.5137 51.543C9.41204 51.722 9.41204 51.722 9.30833 51.9046C8.73551 52.9128 8.73551 52.9128 8.52166 53.2878C7.49877 55.0915 6.50565 56.9244 5.57815 58.7794C13.7895 58.7794 22.0008 58.7794 30.461 58.7794C29.6058 57.0679 29.6058 57.0679 28.6836 55.3992C27.9226 54.0701 27.1978 52.7235 26.4803 51.3707C26.4195 51.2562 26.4195 51.2562 26.3576 51.1394C26.2383 50.9141 26.1196 50.6884 26.0009 50.4628C25.8393 50.1609 25.6756 49.8626 25.5057 49.5655C25.3835 49.3489 25.3835 49.3489 25.2589 49.128C25.1851 49.0001 25.1114 48.8722 25.0354 48.7405C24.8573 48.3281 24.8304 48.0521 24.875 47.6075C25.0712 47.3489 25.2205 47.2443 25.5098 47.0997C25.7261 47.071 25.9431 47.0478 26.1604 47.0283C26.276 47.0176 26.3915 47.007 26.5105 46.996C26.5992 46.9883 26.6879 46.9807 26.7793 46.9727C26.5737 46.2156 26.1858 45.5829 25.7954 44.9097C25.6475 44.6497 25.4997 44.3895 25.3521 44.1292C25.1095 43.7024 24.8665 43.276 24.6215 42.8506C24.3693 42.4122 24.1223 41.971 23.8753 41.5296C23.7563 41.3251 23.7563 41.3251 23.6349 41.1164C23.1724 40.2813 23.0031 39.7869 23.2246 38.8477C23.6436 38.7639 24.0625 38.6802 24.4942 38.5938C23.9415 37.4434 23.3507 36.3216 22.7168 35.2137C22.0604 34.0661 21.4308 32.9067 20.8125 31.7384C19.9525 30.1136 19.0624 28.5083 18.1465 26.9141C18.0627 26.9141 17.9789 26.9141 17.8926 26.9141Z" fill="#4A4949"/>
<path d="M61.3661 24.248C61.5188 24.3727 61.6695 24.4998 61.8184 24.6289C61.9605 24.7462 61.9605 24.7462 62.1055 24.866C63.9768 26.4557 65.0803 28.7037 65.5 31.1035C65.6839 33.8136 65.3795 36.1721 63.8496 38.4668C63.8989 39.0269 64.1361 39.5354 64.3416 40.0537C65.6935 43.5645 65.613 47.5834 64.1035 51.0352C62.4226 54.7259 59.5509 57.4754 55.7693 58.9613C52.9294 59.9645 49.7664 60.2028 46.8379 59.4141C46.7139 59.3817 46.5898 59.3493 46.462 59.3159C44.618 58.7652 42.839 57.8747 41.3789 56.6211C41.2515 56.5126 41.124 56.4041 40.9926 56.2923C39.4656 54.9601 38.3536 53.471 37.4434 51.6699C37.3714 51.5277 37.2994 51.3855 37.2252 51.239C35.6335 47.8161 35.5204 43.6715 36.8112 40.1334C37.4263 38.5503 38.2201 37.0754 39.3477 35.8008C39.4408 35.6924 39.5339 35.5841 39.6299 35.4725C40.6436 34.3145 41.82 33.1449 43.2619 32.5436C44.2668 32.1268 44.2668 32.1268 44.892 31.2801C45.0084 30.8462 45.0763 30.4054 45.1422 29.9615C45.6097 27.336 47.5741 25.2529 49.676 23.7854C53.1982 21.5158 58.017 21.8208 61.3661 24.248ZM52.4239 24.7559C52.3484 24.7873 52.2729 24.8187 52.1952 24.8511C49.9902 25.7889 48.3019 27.347 47.3487 29.586C47.0665 30.4003 46.8944 31.2558 46.7943 32.1112C46.6916 32.8951 46.6916 32.8951 46.405 33.1953C46.1348 33.3731 45.8626 33.5074 45.5684 33.6426C44.4419 34.1804 43.4633 34.7158 42.5215 35.5469C42.4174 35.6328 42.3134 35.7187 42.2061 35.8072C39.9575 37.7171 38.4892 40.5003 38.0782 43.418C37.8176 47.1264 38.5389 50.5024 40.9842 53.3813C43.1665 55.8572 46.1534 57.5337 49.4828 57.7915C53.3023 57.9472 56.545 56.875 59.3845 54.2591C61.8112 51.9086 63.1596 48.843 63.2509 45.4666C63.2783 43.1507 62.7205 41.0228 61.6364 38.9736C61.5297 38.5984 61.5939 38.3339 61.6914 37.959C61.8759 37.6327 61.8759 37.6327 62.104 37.3083C63.4219 35.3194 63.6969 33.2382 63.4142 30.9076C62.9474 28.7723 61.6037 26.8446 59.7871 25.6445C57.6202 24.3923 54.8331 23.7208 52.4239 24.7559Z" fill="#4A4949"/>
<path d="M35.5714 3.38768C36.6866 4.27639 36.6866 4.27639 38.0702 4.41152C38.2479 4.39497 38.4256 4.37933 38.6033 4.36441C38.7006 4.35608 38.7979 4.34776 38.8981 4.33918C41.2004 4.17596 43.2214 4.15143 45.0606 5.71279C46.2576 6.8373 46.8221 8.24064 46.9014 9.86257C46.8814 11.5318 46.2768 13.225 45.6155 14.7438C45.4818 15.7753 46.1584 16.9393 46.5364 17.8765C46.6391 18.131 46.7413 18.3857 46.8429 18.6407C46.8877 18.7516 46.9324 18.8625 46.9786 18.9768C47.4892 20.4195 47.3355 22.1095 46.711 23.4862C45.8222 24.9882 44.7336 25.8277 43.1166 26.4379C42.1553 26.6334 41.1974 26.6677 40.2195 26.6422C38.3076 26.5742 38.3076 26.5742 36.7055 27.4773C36.502 27.6823 36.3054 27.891 36.1121 28.1056C35.7987 28.4397 35.4487 28.721 35.0868 29.0008C35.0198 29.0529 34.9527 29.105 34.8836 29.1586C33.6323 30.0896 32.1284 30.4589 30.5879 30.3417C29.5223 30.1758 28.6731 29.8202 27.795 29.1991C27.6737 29.1152 27.6737 29.1152 27.55 29.0295C26.1708 27.9691 25.7221 26.2989 25.2647 24.7044C24.9544 23.6361 24.6925 22.847 23.6774 22.261C23.5699 22.2045 23.4624 22.148 23.3516 22.0897C23.1638 21.971 22.977 21.8507 22.7912 21.7287C22.7031 21.6732 22.6149 21.6176 22.5241 21.5604C20.913 20.5433 19.4628 19.4734 18.9638 17.5179C18.7209 15.8591 18.7808 14.1708 19.789 12.7666C20.2725 12.1646 20.8354 11.6443 21.4314 11.1559C21.5524 11.054 21.6733 10.952 21.7979 10.847C22.0814 10.6205 22.3639 10.4499 22.6876 10.2866C23.6328 9.77377 24.1057 9.29453 24.4426 8.24888C24.6775 7.43153 24.8475 6.60005 25.0244 5.76864C25.4082 4.16579 26.2586 2.90822 27.668 2.03115C30.4734 0.346816 33.2288 1.56411 35.5714 3.38768ZM27.9219 4.44326C27.1243 5.49098 26.8615 6.66565 26.5572 7.9186C26.484 8.21288 26.4102 8.50701 26.3359 8.801C26.2901 8.98251 26.2452 9.16421 26.2011 9.34612C26.0247 10.0576 25.8926 10.4886 25.2837 10.9119C25.1878 10.9796 25.092 11.0472 24.9932 11.1169C24.8914 11.1874 24.7895 11.2578 24.6846 11.3305C24.476 11.4782 24.2676 11.6262 24.0593 11.7743C23.9588 11.8455 23.8584 11.9166 23.755 11.99C21.9543 13.2411 21.9543 13.2411 20.9395 15.1073C20.8058 16.2002 20.9246 17.052 21.4106 18.0382C22.3193 19.195 23.7056 19.8983 24.9519 20.6338C25.082 20.7126 25.2121 20.7915 25.3462 20.8728C25.4631 20.9421 25.58 21.0114 25.7004 21.0829C26.3384 21.5759 26.5927 22.1996 26.826 22.9526C26.8787 23.1179 26.9314 23.2832 26.9842 23.4485C27.0643 23.7046 27.1439 23.9608 27.223 24.2172C27.6765 25.6777 28.1425 27.1628 29.5723 27.9296C30.6389 28.37 31.5791 28.4269 32.6792 28.0679C33.2475 27.8229 33.6787 27.4442 34.1426 27.0409C34.3463 26.8679 34.5505 26.6956 34.7547 26.5232C34.8915 26.4073 35.0279 26.291 35.1639 26.1741C35.298 26.0591 35.4335 25.9458 35.5703 25.8339C35.8012 25.643 35.8012 25.643 36.0281 25.4068C36.9016 24.5946 37.8224 24.6312 38.951 24.6447C39.1297 24.6441 39.3084 24.6431 39.487 24.6417C39.7486 24.6397 40.0101 24.6377 40.2716 24.6368C41.7397 24.6295 43.0151 24.5329 44.1699 23.519C44.9558 22.6436 45.2312 21.7212 45.2269 20.5646C45.1495 19.8189 44.8504 19.1405 44.5766 18.4478C44.5192 18.2975 44.4619 18.1472 44.4028 17.9923C44.0699 17.1248 44.0699 17.1248 43.6864 16.2792C43.2585 15.1033 43.7109 14.0524 44.1005 12.9174C44.2067 12.6022 44.3121 12.2867 44.4174 11.9712C44.4646 11.8329 44.5118 11.6945 44.5604 11.552C44.907 10.4474 44.9744 9.43216 44.4412 8.38228C44.3707 8.25488 44.3707 8.25488 44.2989 8.1249C44.2282 7.99136 44.1575 7.85782 44.0846 7.72024C43.5581 7.0798 42.8105 6.58615 42.0137 6.34756C41.6138 6.31364 41.2166 6.31802 40.8156 6.32375C40.6996 6.32411 40.5836 6.32447 40.4641 6.32484C39.8377 6.3298 39.2162 6.35312 38.5914 6.39913C38.4684 6.40751 38.3453 6.41588 38.2185 6.42452C37.9831 6.44152 37.7479 6.46154 37.5131 6.48508C36.221 6.5778 35.393 5.85717 34.4203 5.09389C32.4402 3.57516 30.0253 2.24428 27.9219 4.44326Z" fill="#4A4949"/>
<path d="M59.5332 26.4062C60.8294 27.4165 61.7395 28.5515 62.3261 30.0878C62.3669 30.1931 62.4076 30.2983 62.4496 30.4067C63.0595 32.2591 62.7948 34.3317 61.985 36.0705C61.6467 36.7181 61.2368 37.2633 60.7566 37.8121C60.5437 38.0926 60.4403 38.2431 60.4218 38.5937C60.5514 38.8794 60.5514 38.8794 60.7551 39.165C62.366 41.7194 62.795 44.7984 62.1992 47.7343C61.5829 50.3622 60.115 53.009 57.8629 54.5819C57.5211 54.7789 57.2619 54.8525 56.8672 54.8437C56.2876 54.5732 56.2876 54.5732 56.1054 54.2089C56.0438 53.83 56.0327 53.5642 56.2398 53.231C56.5806 52.8209 56.9575 52.4781 57.367 52.138C59.207 50.5529 60.0942 48.0152 60.279 45.6634C60.4082 43.3527 59.6342 41.1762 58.2998 39.3038C57.7767 38.5652 57.7767 38.5652 57.6685 38.0541C57.8144 37.4708 58.2167 37.1938 58.6921 36.856C59.7116 35.9579 60.4676 34.5529 60.5746 33.1863C60.6021 31.4816 60.2059 30.0893 59.0402 28.8099C57.8816 27.724 56.4702 27.2263 54.8964 27.2552C53.3795 27.3916 52.0238 28.0411 51.0273 29.1992C50.0457 30.482 49.6205 31.8511 49.8133 33.4759C49.8369 33.6147 49.8605 33.7535 49.8847 33.8964C49.9061 34.0943 49.9217 34.2928 49.9323 34.4915C49.9386 34.5837 49.9448 34.6758 49.9512 34.7707C49.8466 35.1928 49.6085 35.3168 49.25 35.5468C48.8527 35.6852 48.8527 35.6852 48.4168 35.7928C45.7753 36.5082 43.7036 37.9076 42.2775 40.2748C40.9784 42.5476 40.5681 45.2128 41.2548 47.7583C41.7134 49.2665 42.4731 50.6342 43.5371 51.7968C43.6517 51.9289 43.6517 51.9289 43.7687 52.0636C44.8667 53.256 46.3253 53.9797 47.8535 54.4628C47.9783 54.5034 48.1032 54.544 48.2319 54.5858C49.4429 54.9108 50.6399 54.8626 51.8853 54.8074C52.1013 54.8013 52.1013 54.8013 52.3216 54.7951C52.4513 54.7894 52.5809 54.7836 52.7145 54.7777C53.0586 54.8437 53.0586 54.8437 53.358 55.1359C53.5664 55.4785 53.5664 55.4785 53.5743 55.9307C53.4105 56.4606 53.2878 56.6077 52.8047 56.875C49.6198 57.3853 46.3791 56.7421 43.726 54.873C41.0686 52.8246 39.5763 50.2671 38.8924 46.9979C38.5814 44.5949 38.8969 42.1641 39.9824 39.9902C40.0877 39.7774 40.0877 39.7774 40.1951 39.5602C40.8014 38.3948 41.5916 37.4823 42.5215 36.5624C42.6139 36.4672 42.7064 36.372 42.8016 36.2738C43.9237 35.1882 46.1021 33.7695 47.7265 33.7695C47.7062 33.6971 47.6859 33.6248 47.665 33.5503C47.2439 31.6936 48.0316 29.7409 48.9961 28.1835C50.069 26.6422 51.8356 25.5685 53.6656 25.1907C55.7536 24.9145 57.7606 25.2049 59.5332 26.4062Z" fill="#4A4949"/>
<path d="M33.127 5.07816C33.6519 5.45542 34.168 5.84379 34.6807 6.2376C34.7601 6.29813 34.8395 6.35866 34.9213 6.42103C35.0801 6.54208 35.2383 6.66396 35.3959 6.78664C35.8125 7.10112 36.1136 7.31002 36.642 7.31571C36.9812 7.33941 37.1901 7.36357 37.5069 7.49821C37.8083 7.8876 37.8755 8.2727 37.8242 8.7598C37.569 9.17352 37.3674 9.34627 36.8954 9.47441C35.7901 9.63472 35.0907 9.21467 34.2243 8.57815C34.1293 8.50717 34.0342 8.4362 33.9363 8.36308C33.7342 8.2154 33.532 8.06778 33.3298 7.92023C33.0505 7.71503 32.7716 7.50935 32.4941 7.30164C32.2752 7.13793 32.0547 6.97671 31.8336 6.81583C31.7114 6.72468 31.5891 6.63353 31.4632 6.53961C31.0179 6.30702 30.7026 6.31129 30.2071 6.3477C29.8697 6.95838 29.6942 7.5449 29.5336 8.21678C29.48 8.43128 29.4262 8.64576 29.3724 8.86023C29.2894 9.19542 29.207 9.53075 29.126 9.86646C29.047 10.1925 28.9652 10.5178 28.883 10.8431C28.8597 10.943 28.8364 11.0428 28.8124 11.1457C28.5993 11.9761 28.1659 12.4082 27.4825 12.9145C27.3626 13.0039 27.3626 13.0039 27.2403 13.095C27.1563 13.1569 27.0722 13.2188 26.9856 13.2825C26.854 13.381 26.854 13.381 26.7198 13.4814C26.2648 13.8207 25.806 14.1525 25.3387 14.4747C25.2515 14.5358 25.1642 14.5969 25.0743 14.6598C24.9081 14.7759 24.7405 14.8901 24.5716 15.0021C24.2021 15.2616 24.0026 15.4484 23.8311 15.8702C23.8623 16.2887 23.9485 16.4434 24.2639 16.7158C24.7752 17.091 25.3117 17.4245 25.851 17.7576C28.8222 19.6057 28.8222 19.6057 29.3223 21.1501C29.3946 21.3666 29.4668 21.5831 29.5391 21.7995C29.6514 22.1399 29.7633 22.4803 29.875 22.8209C29.9834 23.1503 30.0932 23.4793 30.2031 23.8082C30.236 23.9102 30.269 24.0121 30.3029 24.1172C30.3347 24.2121 30.3665 24.307 30.3992 24.4048C30.4265 24.4881 30.4539 24.5715 30.482 24.6573C30.6081 24.9259 30.7353 25.0807 30.9688 25.2637C31.7133 25.2637 32.1246 24.9903 32.6509 24.502C32.7948 24.3744 32.9388 24.247 33.0828 24.1196C33.154 24.0558 33.2252 23.9919 33.2985 23.9261C35.8116 21.6957 35.8116 21.6957 36.8508 21.691C37.0166 21.6897 37.0166 21.6897 37.1858 21.6883C37.3049 21.6878 37.4239 21.6873 37.5465 21.6867C37.7981 21.6838 38.0497 21.6807 38.3013 21.6775C38.6983 21.6731 39.0953 21.6693 39.4924 21.6676C39.8753 21.6657 40.2581 21.6606 40.641 21.655C40.8196 21.6553 40.8196 21.6553 41.0017 21.6557C41.6245 21.6507 41.6245 21.6507 42.1709 21.3871C42.4011 20.6423 41.9157 19.7659 41.6279 19.0743C41.5534 18.8907 41.4791 18.7071 41.4047 18.5235C41.2886 18.2389 41.172 17.9544 41.0545 17.6704C40.9401 17.393 40.8276 17.1149 40.7154 16.8367C40.6801 16.7528 40.6448 16.669 40.6084 16.5826C40.2091 15.5845 40.3691 14.8346 40.701 13.8607C40.771 13.6467 40.841 13.4326 40.911 13.2185C41.0221 12.8844 41.1337 12.5504 41.2454 12.2165C41.3535 11.8922 41.4597 11.5673 41.5659 11.2423C41.6169 11.0931 41.6169 11.0931 41.6689 10.9409C41.9016 10.2367 41.9016 10.2367 41.7598 9.52152C41.3888 9.24483 41.3888 9.24483 40.9346 9.1486C40.3311 8.96539 40.3311 8.96539 40.1094 8.63285C39.9798 8.25399 39.9701 8.04626 40.0697 7.6569C40.2708 7.3026 40.354 7.22236 40.7442 7.10941C41.5723 7.0252 42.1937 7.17364 42.9024 7.61723C43.5512 8.16166 43.8883 8.82339 44.0449 9.64848C44.08 10.8011 43.633 11.9032 43.2753 12.981C43.1849 13.2542 43.0948 13.5275 43.0062 13.8012C42.9262 14.0482 42.8446 14.2948 42.763 14.5413C42.5465 15.3716 42.6824 15.9369 43.005 16.7152C43.0414 16.8059 43.0777 16.8966 43.1151 16.9901C43.2308 17.2782 43.3482 17.5655 43.4657 17.8528C43.5825 18.1412 43.6989 18.4297 43.815 18.7183C43.8871 18.8974 43.9597 19.0763 44.0328 19.2549C44.4188 20.2057 44.5804 20.9629 44.2354 21.9629C43.8994 22.7445 43.3634 23.2907 42.578 23.624C42.0238 23.7713 41.5276 23.7592 40.9579 23.7437C40.7249 23.742 40.4919 23.7406 40.2589 23.7395C39.8955 23.737 39.5326 23.7324 39.1694 23.7216C37.3678 23.6667 37.3678 23.6667 35.854 24.5407C35.6143 24.7754 35.3872 25.0181 35.1582 25.2637C34.9444 25.4446 34.7281 25.6226 34.5076 25.7953C34.3576 25.9141 34.3576 25.9141 34.2046 26.0353C32.9029 27.0407 32.1468 27.5617 30.461 27.4219C29.6613 27.2078 29.15 26.6883 28.6836 26.0254C28.5021 25.6582 28.3734 25.2819 28.2482 24.8923C28.2127 24.7871 28.1771 24.6818 28.1405 24.5734C28.0286 24.2408 27.9197 23.9073 27.8108 23.5736C27.735 23.3474 27.6589 23.1211 27.5827 22.895C27.0332 21.2524 27.0332 21.2524 27.0332 20.9473C26.9078 20.9046 26.9078 20.9046 26.7798 20.861C26.2751 20.6392 25.8341 20.3461 25.3749 20.0428C25.2322 19.9491 25.2322 19.9491 25.0866 19.8534C24.8945 19.7272 24.7025 19.6007 24.5107 19.4741C24.2709 19.317 24.0296 19.1629 23.787 19.0103C22.931 18.4632 22.2333 17.9616 21.7805 17.0356C21.5851 16.039 21.6552 15.3127 22.1103 14.3993C22.7058 13.5879 23.6174 13.0274 24.4228 12.4414C24.7308 12.2162 25.0387 11.9911 25.3435 11.7614C25.6367 11.5528 25.6367 11.5528 25.9176 11.4049C26.5066 11.0691 26.7158 10.7196 26.9094 10.0671C27.0379 9.57851 27.1483 9.08683 27.2554 8.59318C27.3456 8.19655 27.4379 7.80042 27.5311 7.40448C27.5532 7.31026 27.5752 7.21605 27.5979 7.11898C27.8658 6.00494 28.1773 5.07071 29.1914 4.4434C30.6612 3.69757 31.8526 4.18846 33.127 5.07816Z" fill="#4A4949"/>
<path d="M37.1895 15.4883C37.6713 15.9702 37.7245 16.4879 37.7449 17.1467C37.7339 18.1309 37.4838 18.8218 36.8299 19.5593C36.1409 20.2102 35.4341 20.5679 34.4838 20.622C33.5501 20.588 32.5055 20.237 31.8574 19.5508C31.4699 19.0673 31.1842 18.6266 31.1512 17.9957C31.2227 17.5196 31.2227 17.5196 31.421 17.2022C31.8509 16.9376 32.1232 16.9409 32.6191 17.0118C32.9688 17.2669 33.1012 17.4424 33.238 17.8528C33.359 18.1883 33.359 18.1883 33.73 18.3289C34.3638 18.4508 34.7213 18.3967 35.2693 18.0512C35.6289 17.5117 35.5789 17.117 35.5366 16.4836C35.5392 16.1074 35.5895 15.9269 35.793 15.6153C36.2449 15.2638 36.6569 15.3528 37.1895 15.4883Z" fill="#4A4949"/>
<path d="M53.6934 32.5001C53.9949 32.635 53.9949 32.635 54.2012 32.8809C54.2885 33.3173 54.2885 33.3173 54.3281 33.7696C54.3674 33.9396 54.4081 34.1094 54.4551 34.2774C54.7554 34.2621 54.7554 34.2621 55.0899 34.1505C55.1684 34.0431 55.247 33.9358 55.3279 33.8251C55.5977 33.5157 55.5977 33.5157 56.042 33.4522C56.7004 33.5463 56.7004 33.5463 56.9942 33.8966C57.1335 34.3889 57.1535 34.6861 56.9942 35.174C56.531 35.8543 56.0519 36.2991 55.2406 36.507C54.5359 36.6088 53.9424 36.5183 53.3125 36.1817C52.7373 35.6979 52.3134 35.1538 52.1699 34.4044C52.1213 33.7108 52.1934 33.2327 52.5746 32.6508C52.9483 32.406 53.2596 32.4544 53.6934 32.5001Z" fill="#4A4949"/>
<path d="M58.5175 30.8496C58.7635 30.9844 58.7635 30.9844 58.8984 31.2304C58.9685 31.9431 58.9143 32.3906 58.5175 33.0078C58.0709 33.3055 57.9008 33.3353 57.375 33.2617C57.002 33.0157 57.002 33.0157 56.7402 32.6269C56.678 32.0343 56.7916 31.6014 57.1131 31.1035C57.5904 30.6406 57.8796 30.7153 58.5175 30.8496Z" fill="#4A4949"/>
<path d="M54.0742 29.1991C54.3996 29.4366 54.5466 29.622 54.701 29.9926C54.7126 30.5039 54.5771 30.9123 54.3281 31.3574C53.9583 31.6871 53.7914 31.7421 53.2966 31.7223C52.92 31.6077 52.7694 31.5526 52.5507 31.2304C52.3391 30.7014 52.4738 30.3125 52.6846 29.8091C53.0005 29.2062 53.4234 29.1042 54.0742 29.1991Z" fill="#4A4949"/>
<path d="M35.7929 11.8067C36.2168 12.1721 36.2816 12.6414 36.325 13.1784C36.3007 13.4571 36.3007 13.4571 36.0389 13.8459C35.666 14.0918 35.666 14.0918 35.2851 14.1712C34.7791 14.0658 34.5916 13.8528 34.2695 13.4571C34.1174 13.001 34.1005 12.6665 34.1425 12.1875C34.642 11.533 35.0563 11.4844 35.7929 11.8067Z" fill="#4A4949"/>
<path d="M31.3496 13.2032C31.7265 13.4835 31.8357 13.6458 31.9844 14.0919C32.0559 14.9931 32.0559 14.9931 31.786 15.4249C31.3561 15.6895 31.0838 15.6862 30.5879 15.6153C30.1656 15.3072 29.9553 14.9775 29.8262 14.4727C29.8483 14.0448 29.8808 13.716 30.088 13.3381C30.4931 13.1159 30.9063 13.121 31.3496 13.2032Z" fill="#4A4949"/>
<path d="M53.1855 38.4667C53.495 38.6651 53.495 38.6651 53.6933 38.9745C53.751 39.4354 53.7488 39.7392 53.5585 40.1647C53.1946 40.4699 52.8911 40.4816 52.4238 40.498C52.0876 40.398 51.9631 40.3046 51.7494 40.0298C51.6203 39.5957 51.6782 39.2829 51.789 38.8476C52.1799 38.3816 52.6058 38.3943 53.1855 38.4667Z" fill="#4A4949"/>
<path d="M20.0508 32.754C20.4267 33.0817 20.5418 33.2858 20.6221 33.7775C20.5426 34.2445 20.4351 34.3852 20.0508 34.6583C19.6524 34.7745 19.4019 34.8197 19.0034 34.698C18.7207 34.486 18.6287 34.3644 18.5273 34.0235C18.5437 33.5563 18.5555 33.2527 18.8606 32.8889C19.2905 32.6965 19.5854 32.6875 20.0508 32.754Z" fill="#4A4949"/>
<path d="M19.9238 41.3867C20.3508 41.7023 20.5333 41.8836 20.63 42.4102C20.5413 42.8736 20.4339 43.0187 20.0508 43.291C19.6524 43.4072 19.4019 43.4524 19.0034 43.3306C18.7207 43.1186 18.6287 42.997 18.5273 42.6562C18.5545 41.8821 18.5545 41.8821 18.8685 41.5215C19.262 41.3408 19.495 41.3166 19.9238 41.3867Z" fill="#4A4949"/>
<path d="M26.0176 53.5742C26.3624 53.8192 26.4933 53.9984 26.6444 54.3914C26.6549 54.8207 26.5279 55.0126 26.2715 55.3515C25.8906 55.6054 25.8906 55.6054 25.4463 55.5816C25.002 55.4785 25.002 55.4785 24.756 55.3436C24.533 54.937 24.5424 54.5267 24.6211 54.082C24.9813 53.5056 25.369 53.4815 26.0176 53.5742Z" fill="#4A4949"/>
<path d="M16.4961 35.6739C16.7421 35.8881 16.7421 35.8881 16.877 36.1817C16.8618 36.6129 16.8238 36.9358 16.6151 37.3163C16.2086 37.5393 15.7982 37.53 15.3535 37.4512C15.0361 37.2528 15.0361 37.2528 14.8457 36.9434C14.7822 36.4991 14.7822 36.4991 14.8457 36.0547C15.3452 35.4002 15.7595 35.3516 16.4961 35.6739Z" fill="#4A4949"/>
<path d="M12.0527 55.2247C12.3622 55.4151 12.3622 55.4151 12.5605 55.7325C12.638 56.0891 12.6435 56.3922 12.5605 56.7481C12.2987 57.0734 12.2987 57.0734 11.9258 57.2559C11.4784 57.2482 11.1747 57.2207 10.7991 56.9703C10.6098 56.6759 10.5543 56.4631 10.5293 56.1133C10.7638 55.273 11.2189 55.1369 12.0527 55.2247Z" fill="#4A4949"/>
<path d="M18.9082 50.9083C19.2584 51.2117 19.2868 51.3974 19.3446 51.8604C19.2891 52.3048 19.2891 52.3048 19.0907 52.6142C18.6617 52.8892 18.3928 52.884 17.8926 52.8126C17.5478 52.5676 17.4169 52.3883 17.2658 51.9953C17.2552 51.5624 17.3738 51.3732 17.6387 51.0352C18.0664 50.7108 18.406 50.7587 18.9082 50.9083Z" fill="#4A4949"/>
<path d="M23.7324 46.211C24.0498 46.4093 24.0498 46.4093 24.2402 46.7188C24.3124 47.2246 24.3254 47.4875 24.026 47.909C23.6928 48.1431 23.5052 48.2323 23.0976 48.2422C22.74 48.0842 22.5247 47.9429 22.2883 47.6313C22.1774 47.2431 22.229 46.9783 22.3359 46.5918C22.6333 46.067 23.1944 46.1157 23.7324 46.211Z" fill="#4A4949"/>
<path d="M50.3925 46.0839C50.702 46.2823 50.702 46.2823 50.9003 46.5917C50.9584 47.0563 50.9589 47.3567 50.7575 47.7819C50.4244 48.0706 50.1959 48.1064 49.7578 48.1151C49.3078 47.9413 49.1601 47.8038 48.9326 47.3772C48.8518 46.8622 48.9694 46.6417 49.25 46.2109C49.6425 46.0146 49.9602 46.0466 50.3925 46.0839Z" fill="#4A4949"/>
<path d="M15.4805 45.0685C15.7947 45.4334 15.863 45.6172 15.8534 46.1C15.7344 46.465 15.7344 46.465 15.5281 46.703C15.1029 46.9044 14.8025 46.9039 14.3379 46.8458C14.0284 46.6474 14.0284 46.6474 13.8301 46.338C13.7666 45.8937 13.7666 45.8937 13.8301 45.4493C14.3254 44.8003 14.7499 44.7336 15.4805 45.0685Z" fill="#4A4949"/>
<path d="M51.789 42.2753C52.0985 42.4737 52.0985 42.4737 52.2968 42.7831C52.3549 43.2477 52.3554 43.5481 52.154 43.9733C51.8208 44.262 51.5924 44.2978 51.1543 44.3066C50.7043 44.1327 50.5566 43.9952 50.3291 43.5686C50.2483 43.0536 50.3659 42.8331 50.6464 42.4023C51.0389 42.206 51.3567 42.238 51.789 42.2753Z" fill="#4A4949"/>
</g>
<defs>
<clipPath id="clip0_283_51">
<rect width="65" height="65" fill="white" transform="translate(0.5)"/>
</clipPath>
</defs>
</svg>
